# xmcd CD database file
#
# Track frame offsets:
#	150
#	19362
#	42075
#	62012
#	83420
#	103275
#	125012
#	150637
#	169505
#	190845
#	212717
#	231230
#	252880
#	273275
#
# Disc length: 3945 seconds
#
# Revision: 4
# Processed by: cddbd v1.5.2PL0 Copyright (c) Steve Scherf et al.
# Submitted via: CDex 1.70beta2
#
DISCID=b90f670e
DTITLE=オムニバス - New Music Best Collection 02
DYEAR=1991
DGENRE=JPop
TTITLE0=PRINCESS PRINCESS - 世界でいちばん熱い夏
TTITLE1=PRINCESS PRINCESS - Diamonds
TTITLE2=久保田利伸 - Missing
TTITLE3=久保田利伸 - You Were Mine
TTITLE4=爆風スランプ - リゾ・ラバ
TTITLE5=爆風スランプ - Runner
TTITLE6=米米CLUB - Funk Fujiyama
TTITLE7=米米CLUB - 浪漫飛行
TTITLE8=REBECCA - ラズベリー・ドリーム
TTITLE9=HOUND DOG - ff (フォルティシモ)
TTITLE10=TUBE - シーズン・イン・ザ・サン
TTITLE11=TUBE - あー夏休み
TTITLE12=浜田省吾 - 片想い
TTITLE13=浜田省吾 - 路地裏の少年
EXTD=YEAR: 1991
EXTT0=
EXTT1=
EXTT2=
EXTT3=
EXTT4=
EXTT5=
EXTT6=
EXTT7=
EXTT8=
EXTT9=
EXTT10=
EXTT11=
EXTT12=
EXTT13=
PLAYORDER=
